<svg xmlns="http://www.w3.org/2000/svg" viewBox="0 0 25 25"><defs><style>.cls-1{fill:#231f20}</style></defs><g id="calendar_doctor" data-name="calendar doctor"><path class="cls-1" d="M22.5 3H21V2a1 1 0 0 0-1-1h-1a1 1 0 0 0-1 1v1h-4V2a1 1 0 0 0-1-1h-1a1 1 0 0 0-1 1v1H7V2a1 1 0 0 0-1-1H5a1 1 0 0 0-1 1v1H2.5A1.5 1.5 0 0 0 1 4.5v18A1.5 1.5 0 0 0 2.5 24h20a1.5 1.5 0 0 0 1.5-1.5v-18A1.5 1.5 0 0 0 22.5 3zM19 2h1v3h-1zm-7 0h1v3h-1zM5 2h1v3H5zM2.5 4H4v1a1 1 0 0 0 1 1h1a1 1 0 0 0 1-1V4h4v1a1 1 0 0 0 1 1h1a1 1 0 0 0 1-1V4h4v1a1 1 0 0 0 1 1h1a1 1 0 0 0 1-1V4h1.5a.5.5 0 0 1 .5.5V8H2V4.5a.5.5 0 0 1 .5-.5zm20 19h-20a.5.5 0 0 1-.5-.5V9h21v13.5a.5.5 0 0 1-.5.5z"/><path class="cls-1" d="M17 13a2 2 0 0 0-.52 3.92 3.49 3.49 0 0 1-.82 3.23 3.53 3.53 0 0 1-4.83-.05 3.49 3.49 0 0 1-.9-3.1A3.51 3.51 0 0 0 13 13.5v-3a.5.5 0 0 0-.5-.5h-1.06a.5.5 0 1 0 0 1H12v2.5a2.5 2.5 0 0 1-5 0V11h.5a.5.5 0 0 0 0-1h-1a.5.5 0 0 0-.5.5v3a3.5 3.5 0 0 0 2.92 3.44 4.48 4.48 0 0 0 1.24 3.93 4.65 4.65 0 0 0 3.16 1.24 4.36 4.36 0 0 0 3.05-1.22 4.3 4.3 0 0 0 1.12-4A2 2 0 0 0 17 13zm0 3a1 1 0 1 1 1-1 1 1 0 0 1-1 1z"/></g></svg>